<?xml version="1.0" encoding="UTF-8"?>
<svg width="17px" height="20px" viewBox="0 0 17 20" version="1.1" xmlns="http://www.w3.org/2000/svg" xmlns:xlink="http://www.w3.org/1999/xlink">
    <!-- Generator: sketchtool 41.2 (35397) - http://www.bohemiancoding.com/sketch -->
    <title>FD4ED9A5-D065-46F1-B770-C42179E698C6</title>
    <desc>Created with sketchtool.</desc>
    <defs>
        <rect id="path-1" x="7" y="0" width="3" height="3" rx="1.5"></rect>
        <mask id="mask-2" maskContentUnits="userSpaceOnUse" maskUnits="objectBoundingBox" x="0" y="0" width="3" height="3" fill="white">
            <use xlink:href="#path-1"></use>
        </mask>
    </defs>
    <g id="Page-1" stroke="none" stroke-width="1" fill="none" fill-rule="evenodd" opacity="1">
        <g id="1.-Settings-White-list-" transform="translate(-1319.000000, -21.000000)">
            <g id="Header">
                <g id="Notifications" transform="translate(1319.000000, 16.000000)">
                    <g id="Group-3" transform="translate(0.000000, 5.000000)">
                        <g id="notification" transform="translate(0.000000, 2.000000)" fill="#000000">
                            <path d="M16.2777217,13.3465178 C14.7546696,11.9656992 13.3452217,10.0175208 13.3452217,5.15350614 C13.3452217,2.33662082 11.1591696,0.0449424665 8.47213478,0.0449424665 C5.78473043,0.0449424665 3.59838261,2.33662082 3.59838261,5.15350614 C3.59838261,10.0219376 2.18945217,11.9681788 0.665069565,13.347835 C0.242434783,13.7337204 0,14.2894572 0,14.8726245 C0,15.1935757 0.2482,15.453777 0.554347826,15.453777 L5.8151087,15.453777 C6.07173478,16.7449431 7.16535217,17.7181025 8.47183913,17.7181025 C9.77832609,17.7181025 10.8720174,16.7450206 11.1285696,15.453777 L16.3893304,15.453777 C16.6954783,15.453777 16.9436783,15.1935757 16.9436783,14.8726245 C16.9436783,14.2847305 16.7006522,13.7281413 16.2777217,13.3465178 Z M8.47183913,16.5557973 C7.7814913,16.5557973 7.1915913,16.0963768 6.96541739,15.453777 L9.97826087,15.453777 C9.75208696,16.0963768 9.16218696,16.5557973 8.47183913,16.5557973 Z M1.32703478,14.2914719 C1.34721304,14.2685357 1.36872174,14.2466844 1.39141304,14.2259953 C3.71546087,12.1225329 4.70700435,9.40924776 4.70700435,5.15350614 C4.70700435,2.97751589 6.39606522,1.20724763 8.47206087,1.20724763 C10.5477609,1.20724763 12.2364522,2.97751589 12.2364522,5.15350614 C12.2364522,9.40537341 13.2281435,12.1185811 15.5533739,14.2265378 C15.5760652,14.2470718 15.5975739,14.2686907 15.6178261,14.2914719 L1.32703478,14.2914719 L1.32703478,14.2914719 Z" id="Shape"></path>
                        </g>
                        <use id="Rectangle-11" stroke="#000000" mask="url(#mask-2)" stroke-width="2.4" fill="#FFFFFF" xlink:href="#path-1"></use>
                    </g>
                </g>
            </g>
        </g>
    </g>
</svg>