<?xml version="1.0" encoding="UTF-8"?>
<svg width="22px" height="21px" viewBox="0 0 22 21" version="1.1" xmlns="http://www.w3.org/2000/svg" xmlns:xlink="http://www.w3.org/1999/xlink">
    <!-- Generator: sketchtool 41.2 (35397) - http://www.bohemiancoding.com/sketch -->
    <title>43B24A12-106F-4640-9DED-7941962D5E4E</title>
    <desc>Created with sketchtool.</desc>
    <defs></defs>
    <g id="Symbols" stroke="none" stroke-width="1" fill="none" fill-rule="evenodd" opacity="1">
        <g id="Menu-right" transform="translate(-38.000000, -310.000000)" stroke-width="1.2" stroke="#FFFFFF">
            <g id="Group-24">
                <g id="Group-18" transform="translate(0.000000, 39.000000)">
                    <g id="Menu" transform="translate(1.000000, 185.000000)">
                        <g id="Comment-icon" transform="translate(38.000000, 87.000000)">
                            <path d="M2.39348071,14.3967357 L2.10067001,17.9853838 L5.48177823,15.9981262 C6.38535006,16.2646711 7.36212303,16.4102259 8.38139118,16.4102259 C13.0103057,16.4102259 16.7627824,13.4082446 16.7627824,9.70511295 C16.7627824,6.00198132 13.0103057,3 8.38139118,3 C3.75247665,3 0,6.00198132 0,9.70511295 C0,11.5315751 0.91285345,13.1874706 2.39348071,14.3967357 Z" id="Combined-Shape"></path>
                            <path d="M9.71107637,0.0553168279 C11.3375593,0.0553168279 14.526294,0.350094832 16.9782359,2.49311247 C19.4301777,4.6361301 20.1571509,6.69630527 20.1571509,8.93849056" id="Path-10"></path>
                        </g>
                    </g>
                </g>
            </g>
        </g>
    </g>
</svg>