<?xml version="1.0" encoding="UTF-8"?>
<svg width="16px" height="16px" viewBox="0 0 16 16" version="1.1" xmlns="http://www.w3.org/2000/svg" xmlns:xlink="http://www.w3.org/1999/xlink">
    <!-- Generator: Sketch 41.2 (35397) - http://www.bohemiancoding.com/sketch -->
    <title>Group 6</title>
    <desc>Created with Sketch.</desc>
    <defs></defs>
    <g id="Page-1" stroke="none" stroke-width="1" fill="none" fill-rule="evenodd">
        <g id="1.-Settings-White-list-" transform="translate(-283.000000, -251.000000)">
            <g id="Group-6" transform="translate(283.000000, 251.000000)">
                <circle id="Oval" fill="#595C6E" opacity="0.400000006" cx="8" cy="8" r="8"></circle>
                <path d="M5.68749999,4.50781295 C6.42760782,4.09583174 7.18775642,3.88984423 7.96796861,3.88984423 C8.7481808,3.88984423 9.34791435,4.06484247 9.76718725,4.4148442 C10.1864602,4.76484593 10.3960935,5.24791399 10.3960935,5.86406287 C10.3960935,6.37448205 10.2338555,6.82109214 9.90937474,7.20390654 C9.74895728,7.39713666 9.48463703,7.63775924 9.11640604,7.92578149 C8.74817505,8.21380375 8.50664103,8.44531184 8.39179671,8.6203127 C8.27695239,8.79531357 8.21953109,9.03046745 8.21953109,9.32578141 L8.21953109,9.57187514 L7.14765616,9.57187514 L7.14765616,9.22187517 C7.14765616,8.82083152 7.22057209,8.48724112 7.36640614,8.22109398 C7.5122402,7.95494683 7.7847635,7.66510599 8.18398422,7.35156278 C8.58320494,7.03801956 8.8457023,6.78645959 8.97148417,6.59687532 C9.09726605,6.40729105 9.16015604,6.18125166 9.16015604,5.91875036 C9.16015604,5.28437223 8.72630624,4.96718792 7.85859362,4.96718792 C7.39557049,4.96718792 6.82500332,5.13489457 6.14687497,5.47031289 L5.68749999,4.50781295 Z M6.92343742,11.3164063 C6.92343742,10.7658827 7.19140348,10.4906251 7.72734362,10.4906251 C7.98984492,10.4906251 8.19036374,10.5626296 8.32890609,10.7066407 C8.46744844,10.8506518 8.53671857,11.0529935 8.53671857,11.3136719 C8.53671857,11.5743503 8.46653699,11.7803378 8.32617171,11.9316406 C8.18580644,12.0829435 7.98619907,12.1585937 7.72734362,12.1585937 C7.46848818,12.1585937 7.26979226,12.0847664 7.13124991,11.9371094 C6.99270756,11.7894524 6.92343742,11.5825534 6.92343742,11.3164063 Z" id="?" fill="#FFFFFF"></path>
            </g>
        </g>
    </g>
</svg>