<?xml version="1.0" encoding="UTF-8"?>
<svg width="12px" height="12px" viewBox="0 0 12 12" version="1.1" xmlns="http://www.w3.org/2000/svg" xmlns:xlink="http://www.w3.org/1999/xlink">
    <!-- Generator: sketchtool 41.2 (35397) - http://www.bohemiancoding.com/sketch -->
    <title>0AFB5806-BD4D-4F2A-9445-DFB0E1AEB636</title>
    <desc>Created with sketchtool.</desc>
    <defs></defs>
    <g id="Symbols" stroke="none" stroke-width="1" fill="none" fill-rule="evenodd">
        <g id="Menu-right" transform="translate(-223.000000, -605.000000)" fill="#9C9FA7">
            <g id="Group-24">
                <g id="Group-18" transform="translate(0.000000, 39.000000)">
                    <g id="All-Accounts" transform="translate(13.000000, 553.000000)">
                        <g id="Group-2" transform="translate(204.000000, 7.000000)">
                            <path d="M16.5,10.9 L12.3,10.9 L12.3,6.7 C12.3,6.314 11.987,6 11.6,6 C11.214,6 10.9,6.314 10.9,6.7 L10.9,10.9 L6.7,10.9 C6.313,10.9 6,11.213 6,11.6 C6,11.987 6.313,12.3 6.7,12.3 L10.9,12.3 L10.9,16.5 C10.9,16.887 11.214,17.2 11.6,17.2 C11.987,17.2 12.3,16.887 12.3,16.5 L12.3,12.3 L16.5,12.3 C16.887,12.3 17.2,11.987 17.2,11.6 C17.2,11.213 16.887,10.9 16.5,10.9" id="Path"></path>
                        </g>
                    </g>
                </g>
            </g>
        </g>
    </g>
</svg>