<?xml version="1.0" encoding="UTF-8"?>
<svg width="11px" height="10px" viewBox="0 0 11 10" version="1.1" xmlns="http://www.w3.org/2000/svg" xmlns:xlink="http://www.w3.org/1999/xlink">
    <!-- Generator: sketchtool 41.2 (35397) - http://www.bohemiancoding.com/sketch -->
    <title>99EEAD37-FCF5-4978-A564-CB49A23F88D6</title>
    <desc>Created with sketchtool.</desc>
    <defs></defs>
    <g id="Page-1" stroke="none" stroke-width="1" fill="none" fill-rule="evenodd">
        <g id="1.-Settings-White-list-" transform="translate(-934.000000, -254.000000)" fill="#FFFFFF">
            <g id="Group-8" transform="translate(913.000000, 240.000000)">
                <g id="Add-task-button" transform="translate(21.000000, 10.000000)">
                    <path d="M6.10000002,8.19999999 L6.10000002,4.80143794 C6.10000002,4.35590529 5.74182782,4 5.30000001,4 C4.85509186,4 4.5,4.35881599 4.5,4.80143794 L4.5,8.19999999 L1.10143796,8.19999999 C0.655905306,8.19999999 0.300000012,8.55817219 0.300000012,9 C0.300000012,9.44490815 0.658816002,9.80000001 1.10143796,9.80000001 L4.5,9.80000001 L4.5,13.1985621 C4.5,13.6440947 4.85817221,14 5.30000001,14 C5.74490816,14 6.10000002,13.641184 6.10000002,13.1985621 L6.10000002,9.80000001 L9.49856207,9.80000001 C9.94409472,9.80000001 10.3,9.44182781 10.3,9 C10.3,8.55509185 9.94118402,8.19999999 9.49856207,8.19999999 L6.10000002,8.19999999 Z" id="Combined-Shape"></path>
                </g>
            </g>
        </g>
    </g>
</svg>