<?xml version="1.0" encoding="UTF-8"?>
<svg width="12px" height="13px" viewBox="0 0 12 13" version="1.1" xmlns="http://www.w3.org/2000/svg" xmlns:xlink="http://www.w3.org/1999/xlink">
    <!-- Generator: sketchtool 41.2 (35397) - http://www.bohemiancoding.com/sketch -->
    <title>E6F1A8D8-444E-4959-BB37-C7D9FB3CAD84</title>
    <desc>Created with sketchtool.</desc>
    <defs></defs>
    <g id="Page-1" stroke="none" stroke-width="1" fill="none" fill-rule="evenodd">
        <g id="1.-Settings-White-list-" transform="translate(-324.000000, -253.000000)" fill="#595C6E">
            <path d="M329.777632,253 C328.059868,253 326.303289,254.453333 326.303289,255.758 L326.303289,257.728667 C326.303289,258.589333 326.663158,260.331333 327.751316,261.215333 L324.776974,262.850667 C324.776974,262.850667 324,263.200667 324,263.638667 L324,264.821333 C324,265.256667 324.348684,265.61 324.776974,265.61 L334.736184,265.61 C335.165132,265.61 335.513816,265.256667 335.513816,264.821333 L335.513816,263.638667 C335.513816,263.174667 334.736184,262.850667 334.736184,262.850667 L331.836842,261.222667 C332.914474,260.363333 333.206579,258.675333 333.206579,257.728667 L333.206579,255.758 C333.206579,254.453333 331.496053,253 329.777632,253 M332.286184,255.758 L332.286184,257.728667 C332.286184,258.46 332.061842,259.856 331.267105,260.489333 C331.024342,260.683333 330.892763,260.988667 330.918421,261.301333 C330.944737,261.613333 331.123684,261.892 331.395395,262.042 L334.294737,263.669333 C334.320395,263.684 334.352632,263.699333 334.380263,263.711333 C334.448026,263.74 334.531579,263.789333 334.592105,263.832667 L334.592105,264.676 L324.921053,264.676 L324.921053,263.841333 C324.9875,263.793333 325.079605,263.736667 325.151974,263.702667 C325.173684,263.693333 325.195395,263.682667 325.215789,263.670667 L328.190789,262.035333 C328.461842,261.887333 328.641447,261.610667 328.669079,261.299333 C328.696711,260.987333 328.568421,260.682667 328.327632,260.487333 C327.555921,259.86 327.224342,258.470667 327.224342,257.728667 L327.224342,255.758 C327.224342,255.088 328.471711,253.933333 329.777632,253.933333 C331.107895,253.933333 332.286184,255.072 332.286184,255.758 Z" id="Icon-2"></path>
        </g>
    </g>
</svg>